<svg id="Layer_1" data-name="Layer 1" xmlns="http://www.w3.org/2000/svg" viewBox="0 0 100 100"><defs><style>.cls-1{fill:#85272e;}.cls-2{fill:#f1f2f2;}</style></defs><rect class="cls-1" width="100" height="100"/><path class="cls-2" d="M48.58,35.62l-3.11,3.89a1.3,1.3,0,0,0-.17.2,2.3,2.3,0,0,1-.17.2q-5.77,7.22-11.77,14.21a113.9,113.9,0,0,1-13.08,13h9.39a4.61,4.61,0,0,0,2-.66,4.91,4.91,0,0,0,1.5-1.35,1.54,1.54,0,0,1,.64-.55,1.72,1.72,0,0,1,.69-.15,1.49,1.49,0,0,1,1.5,1.5,1.22,1.22,0,0,1,0,.26,1,1,0,0,1-.09.26.69.69,0,0,1-.08.32,2.56,2.56,0,0,1-.2.26,8.57,8.57,0,0,1-2.74,2.33,7.17,7.17,0,0,1-3.49.9H15.9a1.4,1.4,0,0,1-1.07-.47,1.72,1.72,0,0,1-.49-1v-.18a1.33,1.33,0,0,1,.14-.57,1.53,1.53,0,0,1,.44-.52q2.19-1.68,4.26-3.46c1.39-1.19,2.73-2.42,4-3.69A18.51,18.51,0,0,1,20,55.62a31.61,31.61,0,0,1-2-5.22q-.41-1.5-.75-3t-.63-2.91a6.38,6.38,0,0,0-.15-.66c-.05-.21-.1-.41-.14-.6a30.37,30.37,0,0,0-1.61-5.34,3.16,3.16,0,0,0-3.06-2.16h-.29a.2.2,0,0,1-.14.06h-.15a3.89,3.89,0,0,0-1.87.78A1.75,1.75,0,0,0,8.4,38a1.33,1.33,0,0,0,.35.83,2.92,2.92,0,0,0,1.09.78,1.62,1.62,0,0,1,.75.61,1.51,1.51,0,0,1,.23.83,1.57,1.57,0,0,1-.43,1.07,1.41,1.41,0,0,1-1.12.49,1.07,1.07,0,0,1-.35-.06l-.4-.11A6.49,6.49,0,0,1,6,40.4a4.9,4.9,0,0,1-1-3,4,4,0,0,1,.06-.69c0-.23.07-.48.11-.75a6.57,6.57,0,0,1,3-4.27,17.57,17.57,0,0,1,5.13-2.24A21.29,21.29,0,0,1,15.67,29a18.67,18.67,0,0,1,2.19-.14q7.89,0,10.75,5.56a48.58,48.58,0,0,1,4.24,12.2c.07.42.15.83.23,1.24s.15.81.23,1.24L47.2,32.36H41.15a5,5,0,0,0-2,.66,4.81,4.81,0,0,0-1.5,1.36,1.45,1.45,0,0,1-.64.54,1.72,1.72,0,0,1-.69.15,1.44,1.44,0,0,1-1-.46,1.48,1.48,0,0,1-.46-1,1.3,1.3,0,0,1,0-.26A2.66,2.66,0,0,1,35,33a.54.54,0,0,1,.09-.26,1.21,1.21,0,0,1,.2-.26A8.46,8.46,0,0,1,38,30.14a7.22,7.22,0,0,1,3.46-.89h9a1.33,1.33,0,0,1,1.1.49,1.69,1.69,0,0,1,.4,1.12,1.48,1.48,0,0,1-.08.46,1.93,1.93,0,0,1-.26.46Q50.14,33.68,48.58,35.62Z"/><path class="cls-2" d="M91.71,33a3.06,3.06,0,0,0-1,1.47Q90,37.83,89.2,41.18t-1.53,6.69q-.81,3.35-1.56,6.68t-1.55,6.69a9.94,9.94,0,0,1-4.18,6.17,19.22,19.22,0,0,1-7.12,3.11,23.13,23.13,0,0,1-2.48.44,21.45,21.45,0,0,1-2.36.14c-.81,0-1.66,0-2.54-.11s-1.79-.2-2.71-.35a18.59,18.59,0,0,1-7.7-3Q52,65.33,52,60.44a9.75,9.75,0,0,1,2.16-6.35,7.36,7.36,0,0,1,6-2.65,5.91,5.91,0,0,1,3.69,1.24A4.84,4.84,0,0,1,65.76,56v.34a1.42,1.42,0,0,1-.46,1.15,1.53,1.53,0,0,1-1,.41,1.58,1.58,0,0,1-1.56-1.44A1.85,1.85,0,0,0,61.87,55a3.05,3.05,0,0,0-1.7-.47,4.45,4.45,0,0,0-3.8,1.68A6.09,6.09,0,0,0,55.1,60v.41a8,8,0,0,0,.72,2.68,5.9,5.9,0,0,0,1.7,2.16,10.17,10.17,0,0,0,2,1.15,5.28,5.28,0,0,0,2.19.46,8,8,0,0,0,5.56-2.33,10.09,10.09,0,0,0,3.15-5.16q1.5-6.4,3-12.8t3-12.8l.23-.75a6.76,6.76,0,0,1,.29-.69H68.94a3.35,3.35,0,0,0-2.17.84,3.7,3.7,0,0,0-1.29,2,1.59,1.59,0,0,1-.61,1,1.61,1.61,0,0,1-1,.29,1.53,1.53,0,0,1-1-.4,1.38,1.38,0,0,1-.46-1.1v-.23a.53.53,0,0,1,.06-.23,6.8,6.8,0,0,1,6.46-5.24H93.32a1.63,1.63,0,0,1,1.3.49A1.41,1.41,0,0,1,95,30.86a1.49,1.49,0,0,1-.43,1,1.61,1.61,0,0,1-1.24.46A2.39,2.39,0,0,0,91.71,33Z"/></svg>